<?xml version="1.0" encoding="iso-8859-1"?>
<!-- Uploaded to: SVG Repo, www.svgrepo.com, Generator: SVG Repo Mixer Tools -->
<svg height="800px" width="800px" version="1.1" id="Layer_1" xmlns="http://www.w3.org/2000/svg" xmlns:xlink="http://www.w3.org/1999/xlink" 
	 viewBox="0 0 392.533 392.533" xml:space="preserve">
<path style="fill:#FFC10D;" d="M196.267,207.063c21.721,0,39.434-17.713,39.434-39.434s-17.713-39.434-39.434-39.434
	s-39.434,17.713-39.434,39.434C156.832,189.479,174.546,207.063,196.267,207.063z"/>
<path style="fill:#56ACE0;" d="M234.085,288.065l-28.38,49.713c-4.202,7.37-14.739,7.37-18.941,0l-28.38-49.713
	c-34.715,13.899-58.57,45.576-62.513,82.683h200.598C292.655,333.64,268.735,301.964,234.085,288.065z"/>
<g>
	<path style="fill:#194F82;" d="M314.958,49.196C283.281,17.455,241.131,0,196.267,0S109.253,17.455,77.641,49.067
		c-31.677,31.677-49.067,73.826-49.067,118.626c-0.065,44.865,17.39,87.014,49.067,118.691c4.267,4.267,11.119,4.267,15.451,0
		c4.267-4.267,4.267-11.119,0-15.451C65.487,243.394,50.36,206.804,50.36,167.758c0-41.891,17.455-81.002,48.808-109.123
		c54.756-48.937,139.313-48.937,194.133,0.065c31.354,28.057,48.808,67.168,48.808,109.059c0,39.046-15.127,75.701-42.667,103.24
		c-4.267,4.267-4.267,11.119,0,15.451c4.267,4.267,11.119,4.267,15.451,0c31.677-31.612,49.067-73.826,49.067-118.626
		S346.57,80.808,314.958,49.196z"/>
	<path style="fill:#194F82;" d="M282.182,81.907c-54.949-54.949-149.85-46.222-192,26.246
		c-27.345,47.063-18.295,106.861,20.17,145.325c4.267,4.267,11.119,4.267,15.451,0c4.267-4.267,4.267-11.119,0-15.451
		c-38.853-38.853-38.853-102.077,0-140.929s102.077-38.853,140.865,0c18.747,18.747,29.156,43.83,29.156,70.465
		s-10.343,51.717-29.156,70.465c-4.202,4.331-4.202,11.313,0.065,15.515c4.267,4.202,11.119,4.267,15.451,0
		c22.885-22.885,35.556-53.398,35.556-85.851S305.131,104.792,282.182,81.907z"/>
	<path style="fill:#194F82;" d="M196.267,106.473c-33.745,0-61.22,27.41-61.22,61.22c0,33.745,27.41,61.22,61.22,61.22
		s61.22-27.41,61.22-61.22S230.012,106.473,196.267,106.473z M196.267,207.192c-21.721,0-39.434-17.713-39.434-39.434
		c0-21.786,17.713-39.434,39.434-39.434s39.434,17.713,39.434,39.434S217.988,207.192,196.267,207.192z"/>
	<path style="fill:#194F82;" d="M232.275,264.339c-4.848-1.487-10.15,0.646-12.671,5.042l-23.337,40.921l-23.337-40.986
		c-2.521-4.396-7.822-6.465-12.671-5.042l0,0c-51.523,15.838-86.691,63.354-86.691,117.269v0.065
		c0,6.012,4.848,10.925,10.925,10.925h223.612c6.012,0,10.925-4.848,10.925-10.925l0,0
		C318.966,327.693,283.798,280.113,232.275,264.339z M95.935,370.747c3.943-37.107,27.798-68.784,62.513-82.683l28.38,49.713
		c4.202,7.37,14.739,7.37,18.941,0l28.38-49.713c34.715,13.899,58.57,45.576,62.513,82.683H95.935z"/>
</g>
</svg>